PathFileType	4	(X/Y/Z)	C:\Users\°ÂÌØÂü\Desktop\20210112\bx_y_5_901-Unnamed.trc
DataRate	CameraRate	NumFrames	NumMarkers	Units	OrigDataRate	OrigDataStartFrame	OrigNumFrames
50.00	50.00	       4	0	mm	50.00	462	       527
Frame#	Time	
		

462	9.220	-589.05463	111.58521	1434.37512	-675.96936	-59.05171	1550.68066				-630.13281	-76.91719	866.26257	-565.21558	220.48032	1063.60559	-624.02026	278.92245	871.07074	-583.58112	-8.63384	1047.21350	-675.22626	172.65361	157.29161	-702.77649	-26.57808	615.54663	-715.32562	252.13974	638.14447	-671.66541	18.87813	520.84082	-778.53430	104.49269	1041.43884	-574.78601	211.28780	816.94281	-724.00342	246.86356	575.51404	-673.62323	203.60280	531.99750	-768.03473	256.70850	504.09909	-681.76508	297.64301	1536.79871	-665.39850	-68.36559	161.82765	-695.11578	81.32794	574.72784	-624.48132	-79.08012	159.27660	-770.39929	223.98598	205.06273	-882.63531	296.03638	144.59302	-674.59650	54.59296	158.87996	-559.65930	-41.45338	162.68036	-602.54572	18.75179	166.72498				-517.53375	-72.60553	142.85709	-593.97705	222.73210	172.87146	-665.71039	299.16653	160.14262	-628.37762	306.99005	161.61613	-560.89008	261.98355	165.45943	-527.99902	304.12732	146.59570	-702.01758	120.20679	1849.68982	-796.54272	173.73573	183.28377	-583.13617	-2.91890	800.63464	-793.93591	56.74168	174.64432	-769.54205	-32.87711	490.26901	-767.89825	-4.43797	207.41916	-875.97400	-78.82437	141.25412	-715.65662	77.72687	216.68350	-679.31879	-48.83527	706.27313	-720.31702	-23.76613	568.60931							-711.42358	152.26955	216.67371	
463	9.240	-589.71790	111.59618	1434.53589	-676.18146	-59.16459	1550.60706							-565.60071	220.69679	1063.85876	-624.70331	278.73267	870.86487	-584.06494	-8.32065	1047.60974	-675.26147	172.75803	157.30145	-702.96027	-26.49438	615.34314	-715.49652	252.30980	638.16339	-671.97565	18.92130	520.79938	-778.69757	104.56494	1041.22876	-574.91003	211.18936	816.83142	-724.17316	246.93427	575.70148	-674.14008	203.42610	532.16150	-767.89221	256.79633	503.99997	-682.58112	297.68671	1536.67188	-665.42859	-68.32565	161.75220	-695.35040	81.04240	574.69501	-624.38611	-79.11387	159.18919	-770.42297	224.07800	205.05656	-882.51276	296.11960	144.68694	-674.64264	54.37375	158.61830	-559.73395	-41.65725	162.43259	-602.68073	18.61483	166.77361				-517.57098	-72.28879	142.70213	-594.17920	222.70050	173.15063	-665.83173	299.18887	160.06512	-628.29315	306.90448	161.56181	-560.97662	261.90817	165.44893	-527.87457	304.13412	146.42490	-702.60034	120.05686	1849.77222	-796.60754	173.75758	183.22260	-583.61255	-2.73014	800.50012	-793.84930	56.60759	174.64459	-769.78259	-32.79447	490.13992	-767.93213	-4.68700	207.42751	-876.18384	-78.95393	141.52309	-716.05450	77.81517	216.71655	-679.37457	-48.77148	706.18439	-720.33807	-23.73218	568.58112							-711.38538	152.22243	216.52081	
464	9.260	-589.93567	111.76445	1434.41992	-676.64117	-59.29676	1550.73535	-680.58655	274.60242	745.85797				-566.03137	220.96461	1063.87280	-625.19861	278.69189	870.75641	-584.38715	-8.21506	1047.60278	-675.25537	172.47736	157.37244	-703.35138	-26.32351	615.52197	-715.78998	252.82278	638.58600	-671.89539	18.94806	520.93164	-779.09668	104.89521	1040.98352	-575.35455	211.45872	816.83643	-724.40521	246.92961	575.66553	-674.63086	203.60527	532.23413	-768.22852	256.87408	504.27551	-683.26355	298.01437	1537.00830	-665.37744	-68.33479	161.86839	-695.88007	81.45415	574.64636	-624.30902	-78.87502	159.46793	-770.42578	223.90083	205.15799	-882.57715	296.08688	144.53578	-674.23822	54.45549	158.67641	-559.50403	-41.67426	162.76631	-602.62549	18.78587	166.73677				-517.35950	-72.48578	143.10982	-594.12366	222.77362	173.09209	-665.69989	299.30380	160.22610	-628.18219	306.99106	161.64278	-560.91174	261.77023	165.58318	-527.99078	304.21622	146.57008	-703.21808	119.92462	1849.82544	-796.54138	173.85713	183.33777	-583.64069	-3.40691	800.57166	-793.93591	56.74168	174.64432	-769.79193	-32.97134	489.98038	-767.99792	-4.50273	207.43835	-876.17078	-79.19069	141.24234	-715.93427	77.67272	216.68037	-680.07312	-48.71968	706.34875	-720.42517	-23.58603	568.46747							-711.33582	152.32787	216.60048	
465	9.280	-590.58746	111.54650	1434.53687	-676.99261	-59.36342	1550.81348	-680.72083	274.84946	746.00940				-566.45398	221.15250	1063.96484	-625.36487	279.17477	871.02448	-584.78961	-8.08937	1047.58105	-675.44293	172.60809	157.15730	-703.63049	-26.02311	615.28461	-716.04047	252.85426	638.45587	-671.89539	18.94806	520.93164	-779.37213	104.77418	1040.89404	-575.50635	211.54965	816.92944	-724.72430	247.09074	575.59363	-674.43634	203.95949	532.20416	-768.11322	256.87341	504.17343	-683.83325	297.86395	1536.84875	-665.20032	-68.34357	161.87010	-696.02673	81.47220	574.78241	-624.28375	-78.97192	159.32040	-770.50122	224.08751	205.04320	-882.58569	296.07959	144.53705	-674.36438	54.62933	158.67337	-559.46722	-41.68838	162.72803	-602.61359	18.67352	166.67531				-517.44897	-72.56753	142.79755	-594.36395	222.39748	173.07324	-665.89386	299.02078	160.30215	-628.39355	307.07492	161.68750	-561.01801	261.98361	165.23297	-528.09991	304.04861	146.55696	-703.59064	119.93163	1849.77490	-796.55945	173.55804	183.12595	-584.16156	-3.03941	800.54327	-793.92529	56.71706	174.62259	-769.87836	-32.76867	490.18668	-767.81921	-4.57783	207.23210	-875.73853	-78.83031	141.37350	-716.34943	78.22430	216.71036	-680.54010	-48.69152	706.43121	-720.62067	-23.38636	568.20746							-711.33582	152.32787	216.60048	
